<svg width="551" height="704" viewBox="0 0 551 704" fill="none" xmlns="http://www.w3.org/2000/svg">
<path d="M182.79 186.826C180.155 186.826 178.02 184.69 178.02 182.056V70.5566C178.02 59.7069 186.846 50.8802 197.696 50.8802H282.96C285.595 50.8802 287.73 53.016 287.73 55.6503V165.361C287.73 167.995 285.595 170.131 282.96 170.131C280.325 170.131 278.19 167.995 278.19 165.361V60.4203H197.696C192.107 60.4203 187.56 64.9673 187.56 70.5566V182.056C187.56 184.69 185.424 186.826 182.79 186.826Z" fill="#FEFADD"/>
<path d="M282.96 203.521H199.485C187.649 203.521 178.02 193.892 178.02 182.056C178.02 170.22 187.649 160.591 199.485 160.591H282.96C285.595 160.591 287.73 162.726 287.73 165.361C287.73 167.995 285.595 170.131 282.96 170.131H199.485C192.909 170.131 187.56 175.48 187.56 182.056C187.56 188.631 192.909 193.981 199.485 193.981H282.96C285.595 193.981 287.73 196.117 287.73 198.751C287.73 201.385 285.595 203.521 282.96 203.521Z" fill="#FEFADD"/>
<path d="M282.96 186.826H199.485C196.85 186.826 194.715 184.69 194.715 182.056C194.715 179.422 196.85 177.286 199.485 177.286H282.96C285.594 177.286 287.73 179.422 287.73 182.056C287.73 184.69 285.594 186.826 282.96 186.826Z" fill="#FEFADD"/>
<path d="M204.255 170.131C201.62 170.131 199.485 167.995 199.485 165.361V55.6503C199.485 53.016 201.62 50.8802 204.255 50.8802C206.889 50.8802 209.025 53.016 209.025 55.6503V165.361C209.025 167.995 206.889 170.131 204.255 170.131Z" fill="#FEFADD"/>
<path d="M512.185 147.689L497.922 90.6417C501.822 89.8134 504.748 86.3541 504.748 82.2096V73.0116C504.748 53.0409 488.5 36.7941 468.53 36.7941H403.569V17.8216C403.569 7.99432 395.574 0 385.747 0H54.6135C44.7862 0 36.7919 7.99432 36.7919 17.8216V174.19C36.7919 178.952 40.6525 182.814 45.4155 182.814C50.1774 182.814 54.0391 178.953 54.0391 174.19V17.8216C54.0391 17.5042 54.2962 17.2472 54.6135 17.2472H385.746C386.063 17.2472 386.32 17.5042 386.32 17.8216V174.193C386.32 178.955 390.181 182.816 394.944 182.816C399.706 182.816 403.568 178.956 403.568 174.193V164.417H505.292C505.3 164.417 505.307 164.419 505.314 164.419C505.323 164.419 505.331 164.418 505.338 164.418C517.856 164.427 528.484 172.643 532.135 183.964H505.321C500.559 183.964 496.697 187.824 496.697 192.587V210.983C496.697 225.882 508.818 238.003 523.717 238.003H533.49V275.945H510.942C503.535 254.557 483.204 239.152 459.33 239.152C435.456 239.152 415.123 254.557 407.718 275.945H403.565V210.982C403.565 206.22 399.705 202.359 394.942 202.359C390.18 202.359 386.318 206.219 386.318 210.982V275.943H207.406C199.999 254.555 179.668 239.15 155.793 239.15C131.919 239.15 111.587 254.555 104.181 275.943H54.6135C54.2962 275.943 54.0391 275.686 54.0391 275.368V256.397H91.4065C96.1684 256.397 100.03 252.536 100.03 247.773C100.03 243.01 96.1695 239.15 91.4065 239.15H8.62358C3.86162 239.15 0 243.01 0 247.773C0 252.536 3.86055 256.397 8.62358 256.397H36.793V275.368C36.793 285.195 44.7873 293.19 54.6145 293.19H101.195C101.193 293.381 101.18 293.572 101.18 293.764C101.18 323.878 125.68 348.378 155.793 348.378C185.907 348.378 210.407 323.878 210.407 293.764C210.407 293.571 210.394 293.381 210.392 293.19H404.732C404.729 293.381 404.716 293.572 404.716 293.764C404.716 323.878 429.217 348.378 459.33 348.378C489.443 348.378 513.943 323.878 513.943 293.764C513.943 293.571 513.93 293.381 513.928 293.19H542.114C546.876 293.19 550.737 289.329 550.737 284.566V192.585C550.739 169.876 533.983 151.008 512.185 147.689ZM403.569 54.0401H468.53C478.991 54.0401 487.501 62.5508 487.501 73.0116V73.586H403.569V54.0401ZM403.569 147.171V90.8321H480.193L494.278 147.171H403.569ZM155.793 331.134C135.189 331.134 118.426 314.372 118.426 293.766C118.426 273.161 135.189 256.399 155.793 256.399C176.398 256.399 193.161 273.161 193.161 293.766C193.161 314.372 176.398 331.134 155.793 331.134ZM459.332 331.134C438.728 331.134 421.965 314.372 421.965 293.766C421.965 273.161 438.728 256.399 459.332 256.399C479.936 256.399 496.699 273.161 496.699 293.766C496.699 314.372 479.936 331.134 459.332 331.134ZM533.492 220.756H523.719C518.33 220.756 513.946 216.371 513.946 210.982V201.209H533.491V220.756H533.492Z" fill="#FEFADD"/>
<path d="M155.793 275.944C145.966 275.944 137.972 283.939 137.972 293.766C137.972 303.593 145.966 311.588 155.793 311.588C165.621 311.588 173.615 303.593 173.615 293.766C173.615 283.939 165.621 275.944 155.793 275.944Z" fill="#FEFADD"/>
<path d="M459.332 275.944C449.505 275.944 441.51 283.939 441.51 293.766C441.51 303.593 449.505 311.588 459.332 311.588C469.159 311.588 477.153 303.593 477.153 293.766C477.153 283.939 469.159 275.944 459.332 275.944Z" fill="#FEFADD"/>
<path d="M358.152 239.153H229.378C224.616 239.153 220.754 243.013 220.754 247.776C220.754 252.539 224.615 256.4 229.378 256.4H358.152C362.914 256.4 366.775 252.539 366.775 247.776C366.775 243.013 362.915 239.153 358.152 239.153Z" fill="#FEFADD"/>
<path d="M137.397 202.36H27.0196C22.2576 202.36 18.396 206.22 18.396 210.983C18.396 215.746 22.2565 219.607 27.0196 219.607H137.397C142.159 219.607 146.021 215.746 146.021 210.983C146.021 206.22 142.159 202.36 137.397 202.36Z" fill="#FEFADD"/>
<path d="M369.226 466.616H369.359C380.868 466.616 390.194 457.283 390.194 445.782C390.194 434.273 380.868 424.939 369.359 424.939C369.21 424.939 369.06 424.939 368.91 424.947H178.126C177.976 424.939 177.826 424.939 177.676 424.939C166.167 424.939 156.842 434.272 156.842 445.782C156.842 457.283 166.167 466.616 177.676 466.616H177.81" fill="#F6D0B1"/>
<path d="M364.433 370.532C303.823 364.656 243.213 364.656 182.603 370.532C177.9 408.217 176.514 445.903 178.447 483.587C179.854 511.02 201.805 532.855 229.243 534.151C258.759 535.544 288.275 535.544 317.791 534.151C345.229 532.855 367.181 511.02 368.588 483.587C370.522 445.902 369.137 408.217 364.433 370.532Z" fill="#F6D0B1"/>
<path d="M182.607 370.526C212.907 367.587 243.215 366.122 273.524 366.122C258.18 366.122 242.836 367.605 227.491 370.571C225.104 408.619 224.408 446.668 225.384 484.708C226.027 509.745 235.177 530.162 247.185 534.818C241.208 534.656 235.222 534.429 229.246 534.149C201.813 532.855 179.858 511.019 178.448 483.586C176.521 445.9 177.904 408.213 182.607 370.526Z" fill="#F6D0B1"/>
<path d="M324 401.87C289.163 415.328 239.677 409.393 214.737 384.454C214.737 384.454 208.815 424.947 178.132 424.947L164.752 429.446C129.016 289.173 205.239 326.653 205.239 326.653C212.434 312.708 222.917 306.934 233.868 305.541C234.832 305.422 235.796 305.333 236.767 305.274C236.845 305.274 236.922 305.268 236.999 305.262C244.713 304.851 252.522 306.417 259.463 308.648C261.879 309.428 264.195 310.285 266.361 311.173C275.081 314.738 281.432 318.744 282.765 319.601C282.938 319.72 283.027 319.779 283.027 319.779C290.871 309.398 298.353 300.006 306.578 300.006C309.953 300.006 312.286 301.297 313.852 303.363C319.786 311.142 314.911 329.849 314.518 331.319L314.5 331.385C314.506 331.373 314.512 331.349 314.524 331.319L314.566 331.212C315.62 328.557 327.405 300.006 348.541 300.006C349.874 300.006 351.07 300.131 352.136 300.368C367.891 303.85 355.558 331.408 354.201 334.325L354.165 334.408C354.129 334.479 354.105 334.533 354.093 334.557C354.766 333.7 381.152 300.202 392.877 315.57C392.882 315.582 392.882 315.582 392.889 315.587C404.716 331.177 358.82 388.417 324 401.87Z" fill="#FFE24B"/>
<path d="M392.878 315.571H392.873C386.944 309.648 366.41 337.605 354.077 334.576L354.167 334.409C354.131 334.48 354.108 334.534 354.096 334.558C354.767 333.7 381.152 300.202 392.878 315.571Z" fill="#FFE24B"/>
<path d="M352.136 300.369C343.23 298.346 334.975 315.298 330.311 327.332C328.055 333.151 321.068 335.487 315.764 332.198L314.49 331.408L314.502 331.384L314.519 331.319H314.525L314.567 331.211C315.62 328.557 327.406 300.005 348.541 300.005C349.874 300.006 351.07 300.131 352.136 300.369Z" fill="#FFE24B"/>
<path d="M233.866 305.542C208.38 310.036 198.749 368.467 214.736 384.454C214.736 384.454 208.814 424.946 178.131 424.946L164.751 429.446C129.014 289.173 205.237 326.653 205.237 326.653C212.433 312.708 222.915 306.934 233.866 305.542Z" fill="#FFE24B"/>
<path d="M313.852 303.363C304.895 294.405 298.924 340.343 278.759 347.7C258.594 355.056 256.706 345.652 256.706 345.652V345.646C266.634 341.974 275.014 330.367 283.021 319.772C283.026 319.778 283.026 319.778 283.026 319.778C283.271 319.45 283.514 319.129 283.758 318.807C284.062 318.397 284.377 317.986 284.687 317.581C291.937 308.113 298.936 300.006 306.579 300.006C309.953 300.006 312.287 301.298 313.852 303.363Z" fill="#FFE24B"/>
<path d="M237.016 305.268C236.933 305.268 236.849 305.268 236.765 305.274C236.843 305.274 236.921 305.268 236.999 305.262L237.016 305.268Z" fill="#FFE24B"/>
<path d="M425.843 518.579V653.943C425.843 662.608 419.797 670.103 411.333 671.937L291.096 697.994H275.577V524.961H291.096L403.534 500.594C415.001 498.103 425.843 506.848 425.843 518.579Z" fill="#F28464"/>
<path d="M275.577 524.961V697.994H258.904L138.667 671.937C130.203 670.103 124.157 662.608 124.157 653.943V518.579C124.157 506.848 134.999 498.103 146.467 500.594L258.904 524.961H275.577Z" fill="#F28464"/>
<path d="M258.906 697.994V524.96H291.094V697.994" fill="#F28464"/>
<path d="M120.853 583.984H114.555C105.257 583.984 97.7183 576.445 97.7183 567.146V552.033C97.7183 542.734 105.257 535.195 114.555 535.195H120.853C130.152 535.195 137.69 542.734 137.69 552.033V567.146C137.69 576.446 130.152 583.984 120.853 583.984Z" fill="#F6D0B1"/>
<path d="M124.089 583.667C123.048 583.883 121.959 583.987 120.854 583.987H114.552C105.255 583.987 97.7192 576.444 97.7192 567.146V552.036C97.7192 542.731 105.255 535.195 114.552 535.195H120.854C121.959 535.195 123.048 535.299 124.089 535.516C116.345 537.021 110.5 543.844 110.5 552.036V567.146C110.5 575.338 116.345 582.161 124.089 583.667Z" fill="#F6D0B1"/>
<path d="M435.444 583.984H429.146C419.848 583.984 412.309 576.445 412.309 567.146V552.033C412.309 542.734 419.848 535.195 429.146 535.195H435.444C444.742 535.195 452.281 542.734 452.281 552.033V567.146C452.281 576.446 444.743 583.984 435.444 583.984Z" fill="#F6D0B1"/>
<path d="M438.68 583.667C437.639 583.883 436.55 583.987 435.445 583.987H429.142C419.845 583.987 412.31 576.444 412.31 567.146V552.036C412.31 542.731 419.845 535.195 429.142 535.195H435.445C436.55 535.195 437.639 535.299 438.68 535.516C430.936 537.021 425.091 543.844 425.091 552.036V567.146C425.091 575.338 430.936 582.161 438.68 583.667Z" fill="#F6D0B1"/>
<path d="M298.438 488.121C299.86 485.125 298.584 481.543 295.587 480.121C292.59 478.699 289.009 479.975 287.587 482.972C285.021 488.377 279.499 491.87 273.518 491.87C267.537 491.87 262.014 488.377 259.449 482.972C258.027 479.975 254.445 478.699 251.449 480.121C248.452 481.543 247.176 485.125 248.597 488.121C253.141 497.696 262.922 503.882 273.518 503.882C284.113 503.882 293.894 497.695 298.438 488.121Z" fill="#0A1329"/>
<path d="M229.154 463.388C233.945 463.388 237.829 457.606 237.829 450.475C237.829 443.344 233.945 437.562 229.154 437.562C224.363 437.562 220.48 443.344 220.48 450.475C220.48 457.606 224.363 463.388 229.154 463.388Z" fill="#0A1329"/>
<path d="M317.882 463.388C322.673 463.388 326.557 457.606 326.557 450.475C326.557 443.344 322.673 437.562 317.882 437.562C313.091 437.562 309.207 443.344 309.207 450.475C309.207 457.606 313.091 463.388 317.882 463.388Z" fill="#0A1329"/>
<path d="M404.07 549.042C403.368 545.8 400.172 543.742 396.928 544.444L330.424 558.858C327.182 559.561 325.124 562.758 325.826 566C326.436 568.813 328.925 570.735 331.69 570.735C332.111 570.735 332.539 570.69 332.968 570.597L399.473 556.183C402.714 555.481 404.772 552.284 404.07 549.042Z" fill="#0A1329"/>
<path d="M396.928 566.762L330.423 581.176C327.181 581.878 325.123 585.076 325.826 588.318C326.435 591.131 328.924 593.053 331.689 593.053C332.11 593.053 332.539 593.008 332.967 592.915L399.472 578.501C402.713 577.798 404.771 574.601 404.069 571.359C403.368 568.118 400.173 566.061 396.928 566.762Z" fill="#0A1329"/>
<path d="M435.444 529.19H431.849V518.579C431.849 511.161 428.535 504.235 422.756 499.577C416.979 494.919 409.51 493.15 402.262 494.725L370.956 501.509C373.041 495.881 374.28 489.94 374.593 483.892C374.796 479.935 374.953 475.97 375.083 472.002C387.141 469.372 396.201 458.618 396.201 445.782C396.201 432.797 386.936 421.938 374.672 419.464C373.948 404.419 372.702 389.39 370.942 374.443C384.994 359.449 396.041 342.745 399.509 330.462C401.71 322.669 401.084 316.433 397.648 311.929C394.477 307.773 390.154 305.563 385.146 305.538C379.412 305.518 373.148 308.268 366.012 313.939C366.282 308.793 365.379 304.543 363.305 301.243C361.228 297.938 356.98 294 348.536 294C337.308 294 328.486 300.302 322.04 307.584C321.41 304.678 320.338 301.967 318.639 299.734C315.787 295.984 311.615 294 306.575 294C296.841 294 289.163 302.073 281.523 311.86C278.322 310.054 273.882 307.76 268.626 305.607C266.242 304.635 263.785 303.737 261.299 302.927C252.474 300.097 244.193 298.864 236.687 299.261C236.633 299.264 236.558 299.269 236.489 299.276C236.469 299.276 236.449 299.277 236.428 299.279C235.318 299.342 234.239 299.441 233.114 299.581C220.174 301.227 209.955 307.784 202.669 319.096C189.637 314.531 168.607 312.886 157.147 331.462C155.405 334.285 156.281 337.985 159.104 339.727C160.088 340.333 161.176 340.622 162.252 340.622C164.267 340.622 166.235 339.609 167.369 337.769C178.081 320.407 201.603 331.569 202.585 332.045C205.522 333.49 209.073 332.318 210.573 329.411C216.094 318.714 223.963 312.854 234.617 311.499C235.436 311.396 236.232 311.323 237.048 311.275C237.172 311.27 237.299 311.262 237.428 311.251C243.448 310.948 250.243 311.997 257.605 314.357C259.792 315.069 261.975 315.868 264.083 316.727C268.036 318.346 271.496 320.072 274.17 321.523C267.869 329.766 261.374 337.528 254.615 340.024C251.503 341.173 249.912 344.627 251.061 347.739C252.211 350.851 255.665 352.441 258.776 351.293C269.869 347.196 278.385 335.902 286.621 324.981C293.326 316.089 300.925 306.012 306.575 306.012C308.186 306.012 308.71 306.523 309.076 307.003C312.035 310.887 310.603 322.907 308.705 329.801C307.846 332.896 309.574 336.117 312.625 337.115C315.679 338.114 318.974 336.534 320.11 333.531C320.214 333.256 331.007 306.012 348.536 306.012C352.114 306.012 352.882 307.232 353.135 307.632C355.919 312.052 352.113 324.77 348.666 331.97C347.335 334.736 348.305 338.06 350.914 339.677C353.522 341.295 356.932 340.685 358.817 338.263C358.859 338.209 363.094 332.793 368.818 327.409C378.261 318.524 383.31 317.549 385.063 317.549H385.087C386.136 317.555 387.049 317.84 388.098 319.214C389.06 320.476 389.005 323.46 387.949 327.197C382.054 348.077 348.284 386.045 321.827 396.267C287.31 409.604 241.173 402.398 218.981 380.205C217.374 378.599 215 378.036 212.844 378.751C210.688 379.466 209.12 381.335 208.791 383.583C208.778 383.674 207.404 392.797 202.619 401.907C196.684 413.21 188.442 418.941 178.124 418.941C178.116 418.941 178.109 418.942 178.101 418.942C177.959 418.939 177.817 418.933 177.675 418.933C174.544 418.933 171.538 419.478 168.741 420.468C162.577 394.419 160.18 373.368 161.637 357.847C161.947 354.545 159.522 351.616 156.219 351.306C152.918 350.997 149.988 353.422 149.679 356.724C148.02 374.39 150.853 398.187 158.076 427.465C153.589 432.266 150.834 438.707 150.834 445.782C150.834 458.621 159.896 469.377 171.959 472.004C172.089 475.976 172.247 479.941 172.45 483.891C172.745 489.682 173.893 495.388 175.824 500.811L147.74 494.725C140.491 493.15 133.02 494.918 127.241 499.577C121.463 504.235 118.149 511.161 118.149 518.579V529.19H114.555C101.959 529.19 91.7115 539.438 91.7115 552.033V567.146C91.7115 579.742 101.959 589.99 114.555 589.99H118.149V653.943C118.149 665.354 126.243 675.391 137.394 677.806L257.631 703.864C257.638 703.865 257.645 703.865 257.652 703.867C257.818 703.902 257.987 703.928 258.158 703.949C258.196 703.954 258.234 703.962 258.272 703.966C258.471 703.987 258.673 703.998 258.877 703.998C258.886 703.998 258.895 704 258.903 704H291.095C291.104 704 291.112 703.998 291.121 703.998C291.325 703.998 291.527 703.987 291.726 703.966C291.764 703.962 291.802 703.954 291.84 703.949C292.011 703.928 292.18 703.902 292.346 703.867C292.354 703.865 292.361 703.865 292.367 703.864L412.604 677.806C423.755 675.391 431.848 665.354 431.848 653.943V645.753C431.848 642.436 429.159 639.747 425.842 639.747C422.525 639.747 419.836 642.436 419.836 645.753V653.943C419.836 659.741 415.725 664.839 410.061 666.067L297.1 690.548V529.805L404.808 506.462C408.489 505.663 412.283 506.562 415.218 508.928C418.154 511.294 419.838 514.812 419.838 518.579V531.181C411.871 534.752 406.305 542.752 406.305 552.033V567.146C406.305 576.428 411.871 584.427 419.838 587.998V621.729C419.838 625.046 422.527 627.735 425.844 627.735C429.161 627.735 431.85 625.046 431.85 621.729V589.99H435.444C448.04 589.99 458.288 579.742 458.288 567.146V552.033C458.287 539.437 448.039 529.19 435.444 529.19ZM384.189 445.782C384.189 451.818 380.558 457.014 375.371 459.326C375.488 450.271 375.417 441.2 375.156 432.128C380.46 434.39 384.189 439.657 384.189 445.782ZM162.847 445.782C162.847 439.664 166.569 434.4 171.866 432.134C171.607 441.185 171.547 450.267 171.667 459.326C166.478 457.015 162.847 451.819 162.847 445.782ZM184.448 483.275C183.547 465.826 183.382 448.106 183.939 430.518C196.211 428.657 206.269 420.794 213.255 407.492C215.491 403.235 217.102 398.993 218.239 395.376C230.477 404.497 246.629 410.832 264.778 413.502C286.154 416.647 307.952 414.506 326.157 407.472C337.31 403.163 349.152 394.975 360.041 385.151C363.398 417.773 364.263 450.723 362.597 483.275C362.206 490.841 360.004 498.198 356.214 504.704L290.452 518.956H259.547L190.403 503.971C186.872 497.655 184.818 490.553 184.448 483.275ZM264.912 530.967H285.088V691.988H264.912V530.967ZM103.725 567.146V552.033C103.725 546.06 108.584 541.201 114.556 541.201H120.854C126.826 541.201 131.685 546.06 131.685 552.033V567.146C131.685 573.119 126.826 577.978 120.854 577.978H114.556C108.584 577.978 103.725 573.12 103.725 567.146ZM130.163 653.943V587.999C138.13 584.427 143.696 576.428 143.696 567.147V552.033C143.696 542.752 138.13 534.752 130.163 531.182V518.579C130.163 514.812 131.847 511.294 134.782 508.928C137.718 506.562 141.512 505.663 145.195 506.463L252.9 529.805V690.548L139.939 666.067C134.274 664.839 130.163 659.741 130.163 653.943ZM446.275 567.146C446.275 573.119 441.416 577.978 435.444 577.978H429.146C423.174 577.978 418.315 573.119 418.315 567.146V552.033C418.315 546.06 423.174 541.201 429.146 541.201H435.444C441.416 541.201 446.275 546.06 446.275 552.033V567.146Z" fill="#0A1329"/>
</svg>
